:version 1.10
:name ASF
:units
  mass 1
  length 1
  angle deg
:documentation
  ASF file generated by Kaydara
:root
  axis xyz
  order  tx ty tz rx ry rz
  position 0 0 0
  orientation 0 0 0
:bonedata
  begin
    id 1
    name RightUpLegDummy
    direction -0.718183 -0.695806 0.00816078
    length 4.904
    axis 0 0 0 xyz
  end
  begin
    id 2
    name RightUpLeg
    direction -0.00334265 -0.999142 0.0412837
    length 17.4976
    axis -0.59612 0.00940841 -0.192072 xyz
    dof rx ry rz
  end
  begin
    id 3
    name RightLeg
    direction 0.000365068 -0.988824 -0.149089
    length 16.5821
    axis 6.58657 0.0604092 -0.318554 xyz
    dof rx ry rz
  end
  begin
    id 4
    name RightFoot
    direction 0.00079069 -0.460991 0.887405
    length 3.77069
    axis 0.000105557 -0.120464 -0.188919 xyz
    dof rx ry rz
  end
  begin
    id 5
    name RightToes
    direction 0.00124768 -0.014065 0.9999
    length 3.85082
    axis 0.00053932 0.542178 -0.142707 xyz
    dof rx ry rz
  end
  begin
    id 6
    name SpineDummy
    direction 8.3039e-015 1 4.58682e-016
    length 4.6813
    axis 0 0 0 xyz
  end
  begin
    id 7
    name Spine
    direction 4.12799e-006 0.999988 0.00494944
    length 10.1015
    axis -0.00149944 0.000129667 -0.000235877 xyz
    dof rx ry rz
  end
  begin
    id 8
    name Spine1
    direction 0 0 0
    length 0
    axis -0.00160567 0.000129431 -0.000308381 xyz
    dof rx ry rz
  end
  begin
    id 9
    name HEadDummy
    direction 5.38513e-006 0.999999 0.00127044
    length 3.43865
    axis -0.00160567 0.000129431 -0.000308381 xyz
  end
  begin
    id 10
    name HEad
    direction -0.0226495 0.980942 0.192974
    length 5.12695
    axis -0.00160642 -0.114462 -0.000307946 xyz
    dof rx ry rz
  end
  begin
    id 11
    name LeftShoulder1Dummy
    direction 0.99889 -0.0402564 -0.0244456
    length 3.5433
    axis -0.00160567 0.000129431 -0.000308381 xyz
  end
  begin
    id 12
    name LeftShoulder1
    direction 0.999464 -0.00142945 0.0326977
    length 4.05031
    axis 0.393425 -0.0796525 -0.0507861 xyz
    dof rx ry rz
  end
  begin
    id 13
    name LeftArm
    direction 0.998564 -0.000899612 -0.053557
    length 10.3537
    axis -22.9476 0.126974 0.960871 xyz
    dof rx ry rz
  end
  begin
    id 14
    name LeftForeArm
    direction 0.998903 0.00865904 0.0460121
    length 8.70632
    axis -9.91856 -0.0656997 -0.178106 xyz
    dof rx ry rz
  end
  begin
    id 15
    name LeftHand
    direction 0.992938 -0.0411687 0.11126
    length 5.32135
    axis -0.00981066 -0.00340928 0.18486 xyz
    dof rx ry rz
  end
  begin
    id 16
    name RightShoulderDummy
    direction -0.998891 -0.0402456 -0.0244411
    length 3.5433
    axis -0.00160567 0.000129431 -0.000308381 xyz
  end
  begin
    id 17
    name RightShoulder
    direction -0.999353 -0.00388479 0.0357579
    length 4.05031
    axis 1.48787 0.256014 0.157284 xyz
    dof rx ry rz
  end
  begin
    id 18
    name RightArm
    direction -0.998583 -0.000660455 -0.0532032
    length 10.3947
    axis -22.4211 -0.109147 -0.943573 xyz
    dof rx ry rz
  end
  begin
    id 19
    name RightForeArm
    direction -0.998898 0.00868588 0.0461311
    length 8.68355
    axis -9.92343 0.0658342 0.178556 xyz
    dof rx ry rz
  end
  begin
    id 20
    name RightHand
    direction -0.992843 -0.0414545 0.112004
    length 5.28593
    axis -0.00982288 0.00332907 -0.185539 xyz
    dof rx ry rz
  end
  begin
    id 21
    name LeftUpLegDummy
    direction 0.718183 -0.695806 0.00816078
    length 4.904
    axis 0 0 0 xyz
  end
  begin
    id 22
    name LeftUpLeg
    direction 0.00445374 -0.999139 0.0412407
    length 17.4976
    axis -0.593655 -0.0138231 0.255969 xyz
    dof rx ry rz
  end
  begin
    id 23
    name LeftLeg
    direction -0.00154847 -0.988829 -0.149046
    length 16.5821
    axis 6.5841 -0.0555156 0.250722 xyz
    dof rx ry rz
  end
  begin
    id 24
    name LeftFoot
    direction -0.00417678 -0.460985 0.887398
    length 3.77069
    axis 5.53694e-005 4.88088e-005 -0.000136194 xyz
    dof rx ry rz
  end
  begin
    id 25
    name LeftToes
    direction 0.00818061 -0.00485256 0.999955
    length 3.85048
    axis 6.41179e-005 4.88477e-005 -0.000136145 xyz
    dof rx ry rz
  end
:hierarchy
  begin
    root RightUpLegDummy SpineDummy LeftUpLegDummy
    RightUpLegDummy RightUpLeg
    RightUpLeg RightLeg
    RightLeg RightFoot
    RightFoot RightToes
    SpineDummy Spine
    Spine Spine1
    Spine1 HEadDummy LeftShoulder1Dummy RightShoulderDummy
    HEadDummy HEad
    LeftShoulder1Dummy LeftShoulder1
    LeftShoulder1 LeftArm
    LeftArm LeftForeArm
    LeftForeArm LeftHand
    RightShoulderDummy RightShoulder
    RightShoulder RightArm
    RightArm RightForeArm
    RightForeArm RightHand
    LeftUpLegDummy LeftUpLeg
    LeftUpLeg LeftLeg
    LeftLeg LeftFoot
    LeftFoot LeftToes
  end

:SAMPLES-PER-SECOND 30
:FULLY-SPECIFIED
:DEGREES
119
root  -16.3893 38.4688 0.0481956 -175.768 87.1442 -175.906
RightUpLeg  -24.6479 4.15338 -0.365468
RightLeg  -2.7319 5.81332 0.342711
RightFoot  3.8832 -0.158815 1.05105
RightToes  -6.40286e-010 -1.59028e-015 9.93923e-017
Spine  -8.97605 -6.16295 -7.89871
Spine1  13.9832 -8.0934 7.2153
HEad  -9.92168 5.42573 -0.906048
LeftShoulder1  9.93923e-017 0 1.22299e-017
LeftArm  25.7708 13.4428 -78.9355
LeftForeArm  -46.5327 -30.3654 19.013
LeftHand  0.837969 5.89529 -0.927125
RightShoulder  1.98785e-016 -4.96962e-017 1.55301e-017
RightArm  6.5852 -61.4487 69.6087
RightForeArm  -23.6419 14.7582 -0.745289
RightHand  1.0685 -10.3237 -3.35366
LeftUpLeg  11.9594 -0.250383 1.71147
LeftLeg  12.8179 -13.0943 1.66193
LeftFoot  -13.2413 -0.0318474 -4.88533
LeftToes  8.73142e-011 -6.07963e-011 6.03181e-012
120
root  -14.5458 38.2875 0.279239 -158.074 86.1811 -158.428
RightUpLeg  -24.8268 4.5622 0.772598
RightLeg  2.38668 3.36009 -0.134918
RightFoot  7.2066 -0.3551 1.99517
RightToes  -6.40286e-010 -1.59028e-015 9.93923e-017
Spine  -9.5051 -6.41022 -5.61925
Spine1  14.1244 -8.37762 6.83543
HEad  -9.67709 5.67309 -0.993622
LeftShoulder1  9.93923e-017 0 1.22299e-017
LeftArm  28.0238 16.7512 -79.9529
LeftForeArm  -48.8741 -28.2782 18.1809
LeftHand  0.793202 5.57757 -0.738912
RightShoulder  1.98785e-016 -4.96962e-017 1.55301e-017
RightArm  4.85812 -61.1729 70.4283
RightForeArm  -22.4736 14.3399 -0.198897
RightHand  1.06642 -10.342 -3.22957
LeftUpLeg  13.3079 -3.53479 3.35392
LeftLeg  14.9715 -9.88844 1.28573
LeftFoot  -11.0507 0.16254 -8.88045
LeftToes  8.73142e-011 -6.07963e-011 6.03181e-012
121
root  -12.723 38.1961 0.498284 -139.66 84.678 -140.033
RightUpLeg  -24.4155 4.3545 2.93075
RightLeg  6.55828 3.00752 0.152189
RightFoot  10.0667 -0.391568 1.93044
RightToes  -6.40286e-010 -1.59028e-015 9.93923e-017
Spine  -9.81493 -6.2286 -1.78141
Spine1  13.8861 -8.22881 5.97504
HEad  -9.20865 5.78523 -1.45353
LeftShoulder1  9.93923e-017 0 1.22299e-017
LeftArm  30.8066 20.4749 -81.3883
LeftForeArm  -50.4621 -25.5784 15.7594
LeftHand  0.77935 5.43133 -1.13323
RightShoulder  1.98785e-016 -4.96962e-017 1.55301e-017
RightArm  3.69294 -61.0417 71.8434
RightForeArm  -22.5919 14.4368 -0.360721
RightHand  1.05185 -10.2838 -3.01507
LeftUpLeg  13.2838 -6.1258 6.27525
LeftLeg  19.2338 -6.66952 0.645707
LeftFoot  -5.72437 0.786043 -11.9204
LeftToes  8.73142e-011 -6.07963e-011 6.03181e-012
122
root  -11.0338 38.1845 0.735384 -124.945 83.3978 -125.075
RightUpLeg  -23.7465 3.12126 5.96964
RightLeg  10.6505 5.35187 0.671176
RightFoot  9.17102 -0.113333 0.560729
RightToes  -6.40286e-010 -1.59028e-015 9.93923e-017
Spine  -9.38412 -5.36135 1.97551
Spine1  13.486 -7.35847 5.34993
HEad  -9.14422 5.66107 -1.97834
LeftShoulder1  9.93923e-017 0 1.22299e-017
LeftArm  23.452 23.5403 -82.7397
LeftForeArm  -40.6063 -22.1646 7.52943
LeftHand  0.796147 5.50149 -1.64875
RightShoulder  1.98785e-016 -4.96962e-017 1.55301e-017
RightArm  1.36381 -59.8045 74.0129
RightForeArm  -22.0479 14.2317 -0.123472
RightHand  1.05849 -10.3602 -2.94247
LeftUpLeg  11.0721 -3.99972 10.033
LeftLeg  26.3148 -7.26485 1.24282
LeftFoot  4.32069 1.59771 -10.4318
LeftToes  8.73142e-011 -6.07963e-011 6.03181e-012
123
root  -9.54624 38.1743 0.977784 -116.556 82.4968 -116.288
RightUpLeg  -22.7726 2.18633 8.61304
RightLeg  14.496 7.29516 0.45056
RightFoot  5.42338 0.131802 -0.792182
RightToes  -6.40286e-010 -1.59028e-015 9.93923e-017
Spine  -8.18457 -4.41982 4.38043
Spine1  13.2226 -6.28363 5.33541
HEad  -9.43815 5.2268 -1.77704
LeftShoulder1  9.93923e-017 0 1.22299e-017
LeftArm  7.80162 26.1556 -83.4345
LeftForeArm  -23.6795 -15.6669 -2.01667
LeftHand  0.84136 5.79476 -2.35952
RightShoulder  1.98785e-016 -4.96962e-017 1.55301e-017
RightArm  -1.78141 -56.7332 76.7615
RightForeArm  -20.2599 13.4948 0.834741
RightHand  1.09054 -10.585 -3.08019
LeftUpLeg  6.76661 -2.94723 12.3078
LeftLeg  35.7471 -7.02297 2.80715
LeftFoot  15.5006 1.5872 -5.94634
LeftToes  8.73142e-011 -6.07963e-011 6.03181e-012
124
root  -8.18335 38.2568 1.18412 -118.211 81.8063 -117.538
RightUpLeg  -21.0547 3.27176 9.5585
RightLeg  16.6982 5.84955 -0.441255
RightFoot  1.93052 0.197552 -1.48024
RightToes  -6.40286e-010 -1.59028e-015 9.93923e-017
Spine  -7.00643 -4.01137 5.5605
Spine1  13.2138 -5.60541 5.37122
HEad  -9.54396 4.36813 -0.739866
LeftShoulder1  9.93923e-017 0 1.22299e-017
LeftArm  -2.31776 29.0563 -83.5502
LeftForeArm  -13.9132 -8.95596 -6.3946
LeftHand  0.91585 6.33966 -3.73186
RightShoulder  1.98785e-016 -4.96962e-017 1.55301e-017
RightArm  -3.38376 -52.5707 79.6815
RightForeArm  -19.3803 13.1654 1.34458
RightHand  1.11928 -10.6985 -3.475
LeftUpLeg  1.27156 -3.46784 12.9183
LeftLeg  44.7565 -6.40028 5.21672
LeftFoot  21.3426 0.947596 -2.76613
LeftToes  8.73142e-011 -6.07963e-011 6.03181e-012
125
root  -6.7708 38.5394 1.34821 -125.51 81.5203 -124.567
RightUpLeg  -18.2999 5.03752 9.48862
RightLeg  16.5884 3.25296 -1.3743
RightFoot  0.00125939 0.251089 -2.1789
RightToes  -6.40286e-010 -1.59028e-015 9.93923e-017
Spine  -6.61863 -3.76817 6.24009
Spine1  13.2967 -4.99809 4.55197
HEad  -9.16892 3.00344 0.264664
LeftShoulder1  9.93923e-017 0 1.22299e-017
LeftArm  -4.20279 32.2482 -83.1178
LeftForeArm  -10.2747 -6.37092 -7.35871
LeftHand  0.982887 6.91918 -5.4542
RightShoulder  1.98785e-016 -4.96962e-017 1.55301e-017
RightArm  -1.39437 -48.606 82.428
RightForeArm  -22.2171 14.3979 -0.0545653
RightHand  1.13164 -10.5737 -4.22536
LeftUpLeg  -4.46018 -4.60783 12.0904
LeftLeg  51.3726 -6.23108 7.33292
LeftFoot  20.3803 0.411186 -1.13942
LeftToes  8.73142e-011 -6.07963e-011 6.03181e-012
126
root  -5.28856 38.8732 1.48468 -130.982 82.0794 -129.952
RightUpLeg  -15.1559 5.92479 9.21428
RightLeg  15.5322 2.3205 -1.83909
RightFoot  -1.50427 0.31511 -3.09694
RightToes  -6.40286e-010 -1.59028e-015 9.93923e-017
Spine  -6.76732 -2.99803 6.9249
Spine1  13.204 -3.73751 2.74457
HEad  -8.48354 1.26737 0.501522
LeftShoulder1  9.93923e-017 0 1.22299e-017
LeftArm  -2.20904 35.6681 -82.0955
LeftForeArm  -8.21264 -6.97138 -7.10398
LeftHand  1.00636 7.17454 -6.47238
RightShoulder  1.98785e-016 -4.96962e-017 1.55301e-017
RightArm  5.91482 -45.4772 84.7494
RightForeArm  -31.2328 17.1593 -4.73697
RightHand  1.14036 -10.4049 -5.07687
LeftUpLeg  -9.75514 -5.01628 10.2675
LeftLeg  54.9533 -7.07955 7.35227
LeftFoot  16.4173 0.327713 -1.06717
LeftToes  8.73142e-011 -6.07963e-011 6.03181e-012
